# xmcd
#
# Track frame offsets: 
#        150
#        16600
#        31405
#        42920
#        64900
#        78120
#        102720
#        117297
#        129087
#        148480
#        171835
#
# Disc length: 2577 seconds
#
# Revision: 2
# Processed by: cddbd v1.5.2PL0 Copyright (c) Steve Scherf et al.
# Submitted via: ExactAudioCopy v1.1
#
DISCID=900a0f0b
DTITLE=Hale, Terry Lee - Frontier Model
DYEAR=1994
DGENRE=Rock
TTITLE0=Ride Hard
TTITLE1=Time Bomb
TTITLE2=Sad Flower
TTITLE3=Control
TTITLE4=Useless
TTITLE5=Strange Love
TTITLE6=Slow Train
TTITLE7=All For You
TTITLE8=Who's Fooling Who?
TTITLE9=Backroads
TTITLE10=Land Of Plenty
EXTD=Digipak.\r\nGRCD 311
EXTT0=
EXTT1=
EXTT2=
EXTT3=
EXTT4=
EXTT5=
EXTT6=
EXTT7=
EXTT8=
EXTT9=
EXTT10=
PLAYORDER=
